<svg width="300" height="300" viewBox="0 0 300 300" fill="none" xmlns="http://www.w3.org/2000/svg">
  <rect width="300" height="300" fill="#FFFF00"/>
  <path d="M106.951 250.194C108.512 251.359 110.902 252.524 114.121 253.689C117.34 254.757 121.145 255.291 125.534 255.291C129.827 255.291 133.29 254.612 135.924 253.252C138.655 251.796 140.704 249.66 142.069 246.845C143.533 243.932 144.508 240.243 144.996 235.777C145.581 231.311 145.874 226.019 145.874 219.903V165H162.409V217.573C162.409 225.243 161.97 232.282 161.092 238.689C160.311 245.097 158.702 250.68 156.263 255.437C153.824 260.097 150.166 263.689 145.288 266.214C140.508 268.738 134.07 270 125.973 270C121.193 270 116.95 269.466 113.243 268.398C109.536 267.33 106.122 265.728 103 263.592L106.951 250.194Z" fill="black"/>
  <path d="M270 165V268.398H253.465V222.816H201.08V268.398H184.691V165H201.08V208.252H253.465V165H270Z" fill="black"/>
</svg>
